<svg xmlns="http://www.w3.org/2000/svg" xml:space="preserve" id="Layer_1" version="1.1" viewBox="0 0 64 64"><g id="App_Store"><path d="M3 13C3 7.5 7.5 3 13 3h38c5.5 0 10 4.5 10 10v38c0 5.5-4.5 10-10 10H13C7.5 61 3 56.5 3 51z" style="fill:#57cef3"/><path d="M21.2 0c-3.4 0-6 0-8 .2-2.2.1-3.9.5-5.6 1.3C5 2.9 2.9 5 1.5 7.6.7 9.3.3 11 .2 13.2c-.2 2-.2 4.6-.2 7.9v21.8c0 3.3 0 5.9.2 8s.5 3.9 1.4 5.5c1.3 2.6 3.4 4.7 6 6.1 1.6.8 3.4 1.2 5.5 1.4s4.7.2 8 .2H46v-3h8l7-7V20h-1c0 12.2-7.7 22.8-19 28.2-3.5 2.3-9.8 3.8-17 3.8-11 0-19.9-3.6-20-7.9V21.2c0-3.4 0-5.8.2-7.7s.4-3.1.9-4C6 7.6 7.6 6 9.5 5.1c1-.5 2.1-.8 4-.9 1.9-.2 4.3-.2 7.7-.2z" style="fill:#1d70f2"/><path d="M50.5 4.2C48.6 4 46.2 4 42.8 4H20V0h22.9c3.3 0 5.9 0 8 .2s3.9.5 5.5 1.4c2.6 1.3 4.7 3.4 6.1 6 .8 1.6 1.2 3.4 1.4 5.5s.2 4.7.2 8v21.8c0 3.3 0 5.9-.2 8s-.5 3.9-1.4 5.5c-1.3 2.6-3.5 4.8-6.1 6.1-1.5.8-3.2 1.1-5.1 1.3-2 .2-4.4.2-7.3.2v-4c3 0 5.1 0 6.9-.2 1.7-.2 2.8-.4 3.7-.9 1.9-1 3.4-2.5 4.4-4.4.5-1 .8-2.1.9-4 .2-1.9.2-4.3.2-7.7V21.2c0-3.4 0-5.8-.2-7.7s-.4-3.1-.9-4c-1-1.9-2.5-3.4-4.4-4.4-1-.5-2.2-.8-4.1-.9" style="fill-rule:evenodd;clip-rule:evenodd;fill:#314a52"/><path d="M13.4 51.5c-1.4-.9-1.8-2.8-.9-4.2l2.6-4.1c2.2-.7 4.6-.1 6.2 1.5l-3.8 5.8c-.9 1.5-2.7 1.9-4.1 1M27 36l12.5-19.4c.9-1.4.5-3.2-.9-4.2-1.4-.9-3.2-.5-4.1.9L32 17.2l-2.5-3.8c-.9-1.4-2.8-1.8-4.1-.9s-1.8 2.8-.9 4.2l3.9 6.1L19.8 36H11c-1.7 0-3 1.3-3 3s1.3 3 3 3h26.5c.3-.6.5-1.3.5-2 0-2.2-1.8-4-4-4zm22 7.5L48 42h3c1.7 0 6.1-3.4 4-5.2-.5-.5-1.2-.8-2-.8h-8.8l-8-12.4c-2.3 2.5-2.8 6.3-1.1 9.4l9.1 14c4.9 7.6 9.6 3.9 4.8-3.5" style="fill:#fff"/><path d="M56 39c0 1.7-1.3 3-3 3h-2.9c1.8-1.6 3.3-3.5 4.6-5.4.8.5 1.3 1.4 1.3 2.4m-7.2 4.2c-1.5 1.3-3.1 2.4-4.9 3.5l2.6 4c.9 1.4 2.8 1.8 4.1.9s1.8-2.8.9-4.2zm-32.1 8.3c-1.5-.2-3-.6-4.3-.9.2.4.5.7 1 1 1 .6 2.3.5 3.3-.1" style="fill:#acbdc5"/></g></svg>